ISO-10303-21;
HEADER;
/* Generated by software containing ST-Developer
 * from STEP Tools, Inc. (www.steptools.com) 
 */
/* OPTION: using custom renumber hook */

FILE_DESCRIPTION(
/* description */ ('STEP AP242 Edition 2',
'CAx-IF Rec.Pracs.---Representation and Presentation of Product Manufa
cturing Information (PMI)---4.0---2014-10-13',
'CAx-IF Rec.Pracs.---3D Tessellated Geometry---0.4---2014-09-14','2;1',
'CAx-IF Rec.Pracs.---User Defined Attributes---1.5---2016-08-15'),
/* implementation_level */ '2;1');

FILE_NAME(
/* name */ 'Part Studio 2 - Part 1',
/* time_stamp */ '2026-08-23T17:14:28Z',
/* author */ (''),
/* organization */ (''),
/* preprocessor_version */ 'ST-DEVELOPER v20',
/* originating_system */ 'ONSHAPE BY PTC INC, 1.219',
/* authorisation */ '  ');

FILE_SCHEMA (('AP242_MANAGED_MODEL_BASED_3D_ENGINEERING_MIM_LF { 1 0 10303 442 3 1 4 }'));
ENDSEC;

DATA;
#10=SHAPE_REPRESENTATION_RELATIONSHIP('','',#797,#11);
#11=ADVANCED_BREP_SHAPE_REPRESENTATION('',(#795),#1331);
#12=LINE('',#1143,#72);
#13=LINE('',#1146,#73);
#14=LINE('',#1148,#74);
#15=LINE('',#1150,#75);
#16=LINE('',#1151,#76);
#17=LINE('',#1154,#77);
#18=LINE('',#1156,#78);
#19=LINE('',#1158,#79);
#20=LINE('',#1160,#80);
#21=LINE('',#1163,#81);
#22=LINE('',#1165,#82);
#23=LINE('',#1167,#83);
#24=LINE('',#1168,#84);
#25=LINE('',#1171,#85);
#26=LINE('',#1173,#86);
#27=LINE('',#1175,#87);
#28=LINE('',#1177,#88);
#29=LINE('',#1180,#89);
#30=LINE('',#1181,#90);
#31=LINE('',#1183,#91);
#32=LINE('',#1186,#92);
#33=LINE('',#1187,#93);
#34=LINE('',#1189,#94);
#35=LINE('',#1192,#95);
#36=LINE('',#1193,#96);
#37=LINE('',#1195,#97);
#38=LINE('',#1198,#98);
#39=LINE('',#1199,#99);
#40=LINE('',#1201,#100);
#41=LINE('',#1202,#101);
#42=LINE('',#1204,#102);
#43=LINE('',#1207,#103);
#44=LINE('',#1209,#104);
#45=LINE('',#1211,#105);
#46=LINE('',#1213,#106);
#47=LINE('',#1214,#107);
#48=LINE('',#1216,#108);
#49=LINE('',#1218,#109);
#50=LINE('',#1220,#110);
#51=LINE('',#1222,#111);
#52=LINE('',#1224,#112);
#53=LINE('',#1226,#113);
#54=LINE('',#1228,#114);
#55=LINE('',#1229,#115);
#56=LINE('',#1231,#116);
#57=LINE('',#1234,#117);
#58=LINE('',#1236,#118);
#59=LINE('',#1238,#119);
#60=LINE('',#1240,#120);
#61=LINE('',#1242,#121);
#62=LINE('',#1256,#122);
#63=LINE('',#1257,#123);
#64=LINE('',#1259,#124);
#65=LINE('',#1261,#125);
#66=LINE('',#1264,#126);
#67=LINE('',#1265,#127);
#68=LINE('',#1267,#128);
#69=LINE('',#1269,#129);
#70=LINE('',#1271,#130);
#71=LINE('',#1273,#131);
#72=VECTOR('',#918,1.);
#73=VECTOR('',#919,1.);
#74=VECTOR('',#920,1.);
#75=VECTOR('',#921,1.);
#76=VECTOR('',#922,1.);
#77=VECTOR('',#923,1.);
#78=VECTOR('',#924,1.);
#79=VECTOR('',#925,1.);
#80=VECTOR('',#928,1.);
#81=VECTOR('',#929,1.);
#82=VECTOR('',#930,1.);
#83=VECTOR('',#931,1.);
#84=VECTOR('',#932,1.);
#85=VECTOR('',#933,1.);
#86=VECTOR('',#934,1.);
#87=VECTOR('',#935,1.);
#88=VECTOR('',#938,1.);
#89=VECTOR('',#939,1.);
#90=VECTOR('',#940,1.);
#91=VECTOR('',#943,1.);
#92=VECTOR('',#944,1.);
#93=VECTOR('',#945,1.);
#94=VECTOR('',#948,1.);
#95=VECTOR('',#949,1.);
#96=VECTOR('',#950,1.);
#97=VECTOR('',#953,1.);
#98=VECTOR('',#954,1.);
#99=VECTOR('',#955,1.);
#100=VECTOR('',#958,1.);
#101=VECTOR('',#959,1.);
#102=VECTOR('',#962,1.);
#103=VECTOR('',#963,1.);
#104=VECTOR('',#964,1.);
#105=VECTOR('',#965,1.);
#106=VECTOR('',#968,1.);
#107=VECTOR('',#969,1.);
#108=VECTOR('',#972,1.);
#109=VECTOR('',#973,1.);
#110=VECTOR('',#974,1.);
#111=VECTOR('',#977,1.);
#112=VECTOR('',#978,1.);
#113=VECTOR('',#979,1.);
#114=VECTOR('',#982,1.);
#115=VECTOR('',#983,1.);
#116=VECTOR('',#986,1.);
#117=VECTOR('',#987,1.);
#118=VECTOR('',#988,1.);
#119=VECTOR('',#989,1.);
#120=VECTOR('',#990,1.);
#121=VECTOR('',#991,1.);
#122=VECTOR('',#1008,1.);
#123=VECTOR('',#1009,1.);
#124=VECTOR('',#1012,1.);
#125=VECTOR('',#1015,1.);
#126=VECTOR('',#1020,1.);
#127=VECTOR('',#1021,1.);
#128=VECTOR('',#1024,1.);
#129=VECTOR('',#1027,1.);
#130=VECTOR('',#1030,1.);
#131=VECTOR('',#1033,1.);
#132=PLANE('',#814);
#133=PLANE('',#815);
#134=PLANE('',#816);
#135=PLANE('',#817);
#136=PLANE('',#818);
#137=PLANE('',#819);
#138=PLANE('',#820);
#139=PLANE('',#821);
#140=PLANE('',#822);
#141=PLANE('',#823);
#142=PLANE('',#824);
#143=PLANE('',#825);
#144=PLANE('',#826);
#145=PLANE('',#827);
#146=PLANE('',#828);
#147=PLANE('',#834);
#148=PLANE('',#835);
#149=PLANE('',#836);
#150=PLANE('',#837);
#151=PLANE('',#838);
#152=PLANE('',#839);
#153=PLANE('',#840);
#154=PLANE('',#841);
#155=PLANE('',#842);
#156=PLANE('',#843);
#157=PLANE('',#846);
#158=PLANE('',#850);
#159=PLANE('',#854);
#160=PLANE('',#858);
#161=PLANE('',#862);
#162=PLANE('',#864);
#163=PLANE('',#867);
#164=PLANE('',#872);
#165=PLANE('',#875);
#166=PLANE('',#878);
#167=PLANE('',#879);
#168=PLANE('',#880);
#169=PLANE('',#881);
#170=PLANE('',#882);
#171=PLANE('',#883);
#172=ORIENTED_EDGE('',*,*,#352,.F.);
#173=ORIENTED_EDGE('',*,*,#353,.T.);
#174=ORIENTED_EDGE('',*,*,#354,.F.);
#175=ORIENTED_EDGE('',*,*,#355,.T.);
#176=ORIENTED_EDGE('',*,*,#356,.F.);
#177=ORIENTED_EDGE('',*,*,#357,.T.);
#178=ORIENTED_EDGE('',*,*,#358,.T.);
#179=ORIENTED_EDGE('',*,*,#359,.F.);
#180=ORIENTED_EDGE('',*,*,#360,.T.);
#181=ORIENTED_EDGE('',*,*,#361,.F.);
#182=ORIENTED_EDGE('',*,*,#362,.F.);
#183=ORIENTED_EDGE('',*,*,#363,.F.);
#184=ORIENTED_EDGE('',*,*,#364,.T.);
#185=ORIENTED_EDGE('',*,*,#365,.T.);
#186=ORIENTED_EDGE('',*,*,#366,.T.);
#187=ORIENTED_EDGE('',*,*,#367,.T.);
#188=ORIENTED_EDGE('',*,*,#368,.F.);
#189=ORIENTED_EDGE('',*,*,#369,.F.);
#190=ORIENTED_EDGE('',*,*,#370,.F.);
#191=ORIENTED_EDGE('',*,*,#371,.T.);
#192=ORIENTED_EDGE('',*,*,#372,.T.);
#193=ORIENTED_EDGE('',*,*,#373,.T.);
#194=ORIENTED_EDGE('',*,*,#374,.T.);
#195=ORIENTED_EDGE('',*,*,#375,.T.);
#196=ORIENTED_EDGE('',*,*,#376,.F.);
#197=ORIENTED_EDGE('',*,*,#377,.F.);
#198=ORIENTED_EDGE('',*,*,#378,.F.);
#199=ORIENTED_EDGE('',*,*,#379,.T.);
#200=ORIENTED_EDGE('',*,*,#370,.T.);
#201=ORIENTED_EDGE('',*,*,#380,.T.);
#202=ORIENTED_EDGE('',*,*,#381,.F.);
#203=ORIENTED_EDGE('',*,*,#382,.T.);
#204=ORIENTED_EDGE('',*,*,#378,.T.);
#205=ORIENTED_EDGE('',*,*,#383,.T.);
#206=ORIENTED_EDGE('',*,*,#384,.F.);
#207=ORIENTED_EDGE('',*,*,#385,.T.);
#208=ORIENTED_EDGE('',*,*,#381,.T.);
#209=ORIENTED_EDGE('',*,*,#386,.T.);
#210=ORIENTED_EDGE('',*,*,#387,.F.);
#211=ORIENTED_EDGE('',*,*,#388,.T.);
#212=ORIENTED_EDGE('',*,*,#384,.T.);
#213=ORIENTED_EDGE('',*,*,#389,.T.);
#214=ORIENTED_EDGE('',*,*,#372,.F.);
#215=ORIENTED_EDGE('',*,*,#390,.T.);
#216=ORIENTED_EDGE('',*,*,#387,.T.);
#217=ORIENTED_EDGE('',*,*,#391,.T.);
#218=ORIENTED_EDGE('',*,*,#392,.F.);
#219=ORIENTED_EDGE('',*,*,#393,.F.);
#220=ORIENTED_EDGE('',*,*,#394,.T.);
#221=ORIENTED_EDGE('',*,*,#395,.T.);
#222=ORIENTED_EDGE('',*,*,#396,.F.);
#223=ORIENTED_EDGE('',*,*,#365,.F.);
#224=ORIENTED_EDGE('',*,*,#397,.T.);
#225=ORIENTED_EDGE('',*,*,#393,.T.);
#226=ORIENTED_EDGE('',*,*,#398,.F.);
#227=ORIENTED_EDGE('',*,*,#399,.F.);
#228=ORIENTED_EDGE('',*,*,#400,.T.);
#229=ORIENTED_EDGE('',*,*,#363,.T.);
#230=ORIENTED_EDGE('',*,*,#401,.F.);
#231=ORIENTED_EDGE('',*,*,#402,.F.);
#232=ORIENTED_EDGE('',*,*,#403,.T.);
#233=ORIENTED_EDGE('',*,*,#399,.T.);
#234=ORIENTED_EDGE('',*,*,#404,.F.);
#235=ORIENTED_EDGE('',*,*,#395,.F.);
#236=ORIENTED_EDGE('',*,*,#405,.T.);
#237=ORIENTED_EDGE('',*,*,#402,.T.);
#238=ORIENTED_EDGE('',*,*,#406,.T.);
#239=ORIENTED_EDGE('',*,*,#407,.T.);
#240=ORIENTED_EDGE('',*,*,#408,.T.);
#241=ORIENTED_EDGE('',*,*,#409,.T.);
#242=ORIENTED_EDGE('',*,*,#410,.T.);
#243=ORIENTED_EDGE('',*,*,#411,.T.);
#244=ORIENTED_EDGE('',*,*,#394,.F.);
#245=ORIENTED_EDGE('',*,*,#397,.F.);
#246=ORIENTED_EDGE('',*,*,#364,.F.);
#247=ORIENTED_EDGE('',*,*,#400,.F.);
#248=ORIENTED_EDGE('',*,*,#403,.F.);
#249=ORIENTED_EDGE('',*,*,#405,.F.);
#250=ORIENTED_EDGE('',*,*,#380,.F.);
#251=ORIENTED_EDGE('',*,*,#373,.F.);
#252=ORIENTED_EDGE('',*,*,#391,.F.);
#253=ORIENTED_EDGE('',*,*,#389,.F.);
#254=ORIENTED_EDGE('',*,*,#386,.F.);
#255=ORIENTED_EDGE('',*,*,#383,.F.);
#256=ORIENTED_EDGE('',*,*,#412,.F.);
#257=ORIENTED_EDGE('',*,*,#413,.F.);
#258=ORIENTED_EDGE('',*,*,#414,.F.);
#259=ORIENTED_EDGE('',*,*,#415,.F.);
#260=ORIENTED_EDGE('',*,*,#416,.F.);
#261=ORIENTED_EDGE('',*,*,#396,.T.);
#262=ORIENTED_EDGE('',*,*,#392,.T.);
#263=ORIENTED_EDGE('',*,*,#404,.T.);
#264=ORIENTED_EDGE('',*,*,#401,.T.);
#265=ORIENTED_EDGE('',*,*,#398,.T.);
#266=ORIENTED_EDGE('',*,*,#362,.T.);
#267=ORIENTED_EDGE('',*,*,#417,.T.);
#268=ORIENTED_EDGE('',*,*,#374,.F.);
#269=ORIENTED_EDGE('',*,*,#418,.F.);
#270=ORIENTED_EDGE('',*,*,#367,.F.);
#271=ORIENTED_EDGE('',*,*,#368,.T.);
#272=ORIENTED_EDGE('',*,*,#418,.T.);
#273=ORIENTED_EDGE('',*,*,#377,.T.);
#274=ORIENTED_EDGE('',*,*,#419,.F.);
#275=ORIENTED_EDGE('',*,*,#369,.T.);
#276=ORIENTED_EDGE('',*,*,#419,.T.);
#277=ORIENTED_EDGE('',*,*,#376,.T.);
#278=ORIENTED_EDGE('',*,*,#420,.F.);
#279=ORIENTED_EDGE('',*,*,#420,.T.);
#280=ORIENTED_EDGE('',*,*,#375,.F.);
#281=ORIENTED_EDGE('',*,*,#417,.F.);
#282=ORIENTED_EDGE('',*,*,#366,.F.);
#283=ORIENTED_EDGE('',*,*,#421,.F.);
#284=ORIENTED_EDGE('',*,*,#371,.F.);
#285=ORIENTED_EDGE('',*,*,#422,.F.);
#286=ORIENTED_EDGE('',*,*,#410,.F.);
#287=ORIENTED_EDGE('',*,*,#422,.T.);
#288=ORIENTED_EDGE('',*,*,#379,.F.);
#289=ORIENTED_EDGE('',*,*,#423,.F.);
#290=ORIENTED_EDGE('',*,*,#411,.F.);
#291=ORIENTED_EDGE('',*,*,#421,.T.);
#292=ORIENTED_EDGE('',*,*,#409,.F.);
#293=ORIENTED_EDGE('',*,*,#424,.F.);
#294=ORIENTED_EDGE('',*,*,#390,.F.);
#295=ORIENTED_EDGE('',*,*,#423,.T.);
#296=ORIENTED_EDGE('',*,*,#382,.F.);
#297=ORIENTED_EDGE('',*,*,#425,.F.);
#298=ORIENTED_EDGE('',*,*,#406,.F.);
#299=ORIENTED_EDGE('',*,*,#424,.T.);
#300=ORIENTED_EDGE('',*,*,#408,.F.);
#301=ORIENTED_EDGE('',*,*,#426,.F.);
#302=ORIENTED_EDGE('',*,*,#388,.F.);
#303=ORIENTED_EDGE('',*,*,#425,.T.);
#304=ORIENTED_EDGE('',*,*,#385,.F.);
#305=ORIENTED_EDGE('',*,*,#426,.T.);
#306=ORIENTED_EDGE('',*,*,#407,.F.);
#307=ORIENTED_EDGE('',*,*,#414,.T.);
#308=ORIENTED_EDGE('',*,*,#427,.F.);
#309=ORIENTED_EDGE('',*,*,#428,.F.);
#310=ORIENTED_EDGE('',*,*,#427,.T.);
#311=ORIENTED_EDGE('',*,*,#413,.T.);
#312=ORIENTED_EDGE('',*,*,#429,.F.);
#313=ORIENTED_EDGE('',*,*,#430,.F.);
#314=ORIENTED_EDGE('',*,*,#429,.T.);
#315=ORIENTED_EDGE('',*,*,#412,.T.);
#316=ORIENTED_EDGE('',*,*,#431,.F.);
#317=ORIENTED_EDGE('',*,*,#432,.F.);
#318=ORIENTED_EDGE('',*,*,#431,.T.);
#319=ORIENTED_EDGE('',*,*,#416,.T.);
#320=ORIENTED_EDGE('',*,*,#433,.T.);
#321=ORIENTED_EDGE('',*,*,#434,.T.);
#322=ORIENTED_EDGE('',*,*,#433,.F.);
#323=ORIENTED_EDGE('',*,*,#415,.T.);
#324=ORIENTED_EDGE('',*,*,#435,.T.);
#325=ORIENTED_EDGE('',*,*,#436,.T.);
#326=ORIENTED_EDGE('',*,*,#435,.F.);
#327=ORIENTED_EDGE('',*,*,#437,.F.);
#328=ORIENTED_EDGE('',*,*,#361,.T.);
#329=ORIENTED_EDGE('',*,*,#437,.T.);
#330=ORIENTED_EDGE('',*,*,#436,.F.);
#331=ORIENTED_EDGE('',*,*,#438,.F.);
#332=ORIENTED_EDGE('',*,*,#359,.T.);
#333=ORIENTED_EDGE('',*,*,#438,.T.);
#334=ORIENTED_EDGE('',*,*,#434,.F.);
#335=ORIENTED_EDGE('',*,*,#439,.F.);
#336=ORIENTED_EDGE('',*,*,#432,.T.);
#337=ORIENTED_EDGE('',*,*,#357,.F.);
#338=ORIENTED_EDGE('',*,*,#439,.T.);
#339=ORIENTED_EDGE('',*,*,#440,.F.);
#340=ORIENTED_EDGE('',*,*,#430,.T.);
#341=ORIENTED_EDGE('',*,*,#355,.F.);
#342=ORIENTED_EDGE('',*,*,#440,.T.);
#343=ORIENTED_EDGE('',*,*,#441,.F.);
#344=ORIENTED_EDGE('',*,*,#428,.T.);
#345=ORIENTED_EDGE('',*,*,#353,.F.);
#346=ORIENTED_EDGE('',*,*,#441,.T.);
#347=ORIENTED_EDGE('',*,*,#360,.F.);
#348=ORIENTED_EDGE('',*,*,#358,.F.);
#349=ORIENTED_EDGE('',*,*,#356,.T.);
#350=ORIENTED_EDGE('',*,*,#354,.T.);
#351=ORIENTED_EDGE('',*,*,#352,.T.);
#352=EDGE_CURVE('',#442,#442,#510,.T.);
#353=EDGE_CURVE('',#443,#443,#511,.T.);
#354=EDGE_CURVE('',#444,#444,#512,.T.);
#355=EDGE_CURVE('',#445,#445,#513,.T.);
#356=EDGE_CURVE('',#446,#446,#514,.T.);
#357=EDGE_CURVE('',#447,#447,#515,.T.);
#358=EDGE_CURVE('',#448,#448,#516,.T.);
#359=EDGE_CURVE('',#449,#449,#517,.F.);
#360=EDGE_CURVE('',#450,#450,#518,.T.);
#361=EDGE_CURVE('',#451,#451,#519,.F.);
#362=EDGE_CURVE('',#452,#453,#12,.T.);
#363=EDGE_CURVE('',#454,#452,#13,.T.);
#364=EDGE_CURVE('',#454,#455,#14,.T.);
#365=EDGE_CURVE('',#455,#453,#15,.T.);
#366=EDGE_CURVE('',#456,#457,#16,.T.);
#367=EDGE_CURVE('',#457,#458,#17,.T.);
#368=EDGE_CURVE('',#459,#458,#18,.T.);
#369=EDGE_CURVE('',#456,#459,#19,.T.);
#370=EDGE_CURVE('',#460,#461,#20,.T.);
#371=EDGE_CURVE('',#460,#462,#21,.T.);
#372=EDGE_CURVE('',#462,#463,#22,.T.);
#373=EDGE_CURVE('',#463,#461,#23,.T.);
#374=EDGE_CURVE('',#464,#465,#24,.T.);
#375=EDGE_CURVE('',#465,#466,#25,.T.);
#376=EDGE_CURVE('',#467,#466,#26,.T.);
#377=EDGE_CURVE('',#464,#467,#27,.T.);
#378=EDGE_CURVE('',#468,#469,#28,.T.);
#379=EDGE_CURVE('',#468,#460,#29,.T.);
#380=EDGE_CURVE('',#461,#469,#30,.T.);
#381=EDGE_CURVE('',#470,#471,#31,.T.);
#382=EDGE_CURVE('',#470,#468,#32,.T.);
#383=EDGE_CURVE('',#469,#471,#33,.T.);
#384=EDGE_CURVE('',#472,#473,#34,.T.);
#385=EDGE_CURVE('',#472,#470,#35,.T.);
#386=EDGE_CURVE('',#471,#473,#36,.T.);
#387=EDGE_CURVE('',#474,#475,#37,.T.);
#388=EDGE_CURVE('',#474,#472,#38,.T.);
#389=EDGE_CURVE('',#473,#475,#39,.T.);
#390=EDGE_CURVE('',#462,#474,#40,.T.);
#391=EDGE_CURVE('',#475,#463,#41,.T.);
#392=EDGE_CURVE('',#476,#477,#42,.T.);
#393=EDGE_CURVE('',#478,#476,#43,.T.);
#394=EDGE_CURVE('',#478,#479,#44,.T.);
#395=EDGE_CURVE('',#479,#477,#45,.T.);
#396=EDGE_CURVE('',#453,#476,#46,.T.);
#397=EDGE_CURVE('',#455,#478,#47,.T.);
#398=EDGE_CURVE('',#480,#452,#48,.T.);
#399=EDGE_CURVE('',#481,#480,#49,.T.);
#400=EDGE_CURVE('',#481,#454,#50,.T.);
#401=EDGE_CURVE('',#482,#480,#51,.T.);
#402=EDGE_CURVE('',#483,#482,#52,.T.);
#403=EDGE_CURVE('',#483,#481,#53,.T.);
#404=EDGE_CURVE('',#477,#482,#54,.T.);
#405=EDGE_CURVE('',#479,#483,#55,.T.);
#406=EDGE_CURVE('',#484,#485,#56,.T.);
#407=EDGE_CURVE('',#485,#486,#57,.T.);
#408=EDGE_CURVE('',#486,#487,#58,.T.);
#409=EDGE_CURVE('',#487,#488,#59,.T.);
#410=EDGE_CURVE('',#488,#489,#60,.T.);
#411=EDGE_CURVE('',#489,#484,#61,.T.);
#412=EDGE_CURVE('',#490,#490,#520,.T.);
#413=EDGE_CURVE('',#491,#491,#521,.T.);
#414=EDGE_CURVE('',#492,#492,#522,.T.);
#415=EDGE_CURVE('',#493,#493,#523,.T.);
#416=EDGE_CURVE('',#494,#494,#524,.T.);
#417=EDGE_CURVE('',#457,#465,#62,.T.);
#418=EDGE_CURVE('',#458,#464,#63,.T.);
#419=EDGE_CURVE('',#459,#467,#64,.T.);
#420=EDGE_CURVE('',#456,#466,#65,.T.);
#421=EDGE_CURVE('',#462,#488,#66,.T.);
#422=EDGE_CURVE('',#489,#460,#67,.F.);
#423=EDGE_CURVE('',#484,#468,#68,.F.);
#424=EDGE_CURVE('',#474,#487,#69,.T.);
#425=EDGE_CURVE('',#485,#470,#70,.F.);
#426=EDGE_CURVE('',#472,#486,#71,.F.);
#427=EDGE_CURVE('',#495,#495,#525,.T.);
#428=EDGE_CURVE('',#496,#496,#526,.T.);
#429=EDGE_CURVE('',#497,#497,#527,.T.);
#430=EDGE_CURVE('',#498,#498,#528,.T.);
#431=EDGE_CURVE('',#499,#499,#529,.T.);
#432=EDGE_CURVE('',#500,#500,#530,.T.);
#433=EDGE_CURVE('',#501,#501,#531,.T.);
#434=EDGE_CURVE('',#502,#502,#532,.T.);
#435=EDGE_CURVE('',#503,#503,#533,.T.);
#436=EDGE_CURVE('',#504,#504,#534,.T.);
#437=EDGE_CURVE('',#505,#505,#535,.T.);
#438=EDGE_CURVE('',#506,#506,#536,.T.);
#439=EDGE_CURVE('',#507,#507,#537,.T.);
#440=EDGE_CURVE('',#508,#508,#538,.T.);
#441=EDGE_CURVE('',#509,#509,#539,.T.);
#442=VERTEX_POINT('',#1119);
#443=VERTEX_POINT('',#1121);
#444=VERTEX_POINT('',#1124);
#445=VERTEX_POINT('',#1126);
#446=VERTEX_POINT('',#1129);
#447=VERTEX_POINT('',#1131);
#448=VERTEX_POINT('',#1134);
#449=VERTEX_POINT('',#1136);
#450=VERTEX_POINT('',#1139);
#451=VERTEX_POINT('',#1141);
#452=VERTEX_POINT('',#1144);
#453=VERTEX_POINT('',#1145);
#454=VERTEX_POINT('',#1147);
#455=VERTEX_POINT('',#1149);
#456=VERTEX_POINT('',#1152);
#457=VERTEX_POINT('',#1153);
#458=VERTEX_POINT('',#1155);
#459=VERTEX_POINT('',#1157);
#460=VERTEX_POINT('',#1161);
#461=VERTEX_POINT('',#1162);
#462=VERTEX_POINT('',#1164);
#463=VERTEX_POINT('',#1166);
#464=VERTEX_POINT('',#1169);
#465=VERTEX_POINT('',#1170);
#466=VERTEX_POINT('',#1172);
#467=VERTEX_POINT('',#1174);
#468=VERTEX_POINT('',#1178);
#469=VERTEX_POINT('',#1179);
#470=VERTEX_POINT('',#1184);
#471=VERTEX_POINT('',#1185);
#472=VERTEX_POINT('',#1190);
#473=VERTEX_POINT('',#1191);
#474=VERTEX_POINT('',#1196);
#475=VERTEX_POINT('',#1197);
#476=VERTEX_POINT('',#1205);
#477=VERTEX_POINT('',#1206);
#478=VERTEX_POINT('',#1208);
#479=VERTEX_POINT('',#1210);
#480=VERTEX_POINT('',#1217);
#481=VERTEX_POINT('',#1219);
#482=VERTEX_POINT('',#1223);
#483=VERTEX_POINT('',#1225);
#484=VERTEX_POINT('',#1232);
#485=VERTEX_POINT('',#1233);
#486=VERTEX_POINT('',#1235);
#487=VERTEX_POINT('',#1237);
#488=VERTEX_POINT('',#1239);
#489=VERTEX_POINT('',#1241);
#490=VERTEX_POINT('',#1246);
#491=VERTEX_POINT('',#1248);
#492=VERTEX_POINT('',#1250);
#493=VERTEX_POINT('',#1252);
#494=VERTEX_POINT('',#1254);
#495=VERTEX_POINT('',#1277);
#496=VERTEX_POINT('',#1280);
#497=VERTEX_POINT('',#1283);
#498=VERTEX_POINT('',#1286);
#499=VERTEX_POINT('',#1289);
#500=VERTEX_POINT('',#1292);
#501=VERTEX_POINT('',#1295);
#502=VERTEX_POINT('',#1298);
#503=VERTEX_POINT('',#1301);
#504=VERTEX_POINT('',#1304);
#505=VERTEX_POINT('',#1307);
#506=VERTEX_POINT('',#1311);
#507=VERTEX_POINT('',#1315);
#508=VERTEX_POINT('',#1319);
#509=VERTEX_POINT('',#1323);
#510=CIRCLE('',#800,0.0011);
#511=CIRCLE('',#801,0.0011);
#512=CIRCLE('',#803,0.0011);
#513=CIRCLE('',#804,0.0011);
#514=CIRCLE('',#806,0.0011);
#515=CIRCLE('',#807,0.0011);
#516=CIRCLE('',#809,0.0011);
#517=CIRCLE('',#810,0.0011);
#518=CIRCLE('',#812,0.0011);
#519=CIRCLE('',#813,0.0011);
#520=CIRCLE('',#829,0.003);
#521=CIRCLE('',#830,0.003);
#522=CIRCLE('',#831,0.003);
#523=CIRCLE('',#832,0.003);
#524=CIRCLE('',#833,0.003);
#525=CIRCLE('',#845,0.003);
#526=CIRCLE('',#847,0.0016);
#527=CIRCLE('',#849,0.003);
#528=CIRCLE('',#851,0.0016);
#529=CIRCLE('',#853,0.003);
#530=CIRCLE('',#855,0.0016);
#531=CIRCLE('',#857,0.003);
#532=CIRCLE('',#859,0.0016);
#533=CIRCLE('',#861,0.003);
#534=CIRCLE('',#863,0.0016);
#535=CIRCLE('',#865,0.0016);
#536=CIRCLE('',#868,0.0016);
#537=CIRCLE('',#871,0.0016);
#538=CIRCLE('',#874,0.0016);
#539=CIRCLE('',#877,0.0016);
#540=EDGE_LOOP('',(#172));
#541=EDGE_LOOP('',(#173));
#542=EDGE_LOOP('',(#174));
#543=EDGE_LOOP('',(#175));
#544=EDGE_LOOP('',(#176));
#545=EDGE_LOOP('',(#177));
#546=EDGE_LOOP('',(#178));
#547=EDGE_LOOP('',(#179));
#548=EDGE_LOOP('',(#180));
#549=EDGE_LOOP('',(#181));
#550=EDGE_LOOP('',(#182,#183,#184,#185));
#551=EDGE_LOOP('',(#186,#187,#188,#189));
#552=EDGE_LOOP('',(#190,#191,#192,#193));
#553=EDGE_LOOP('',(#194,#195,#196,#197));
#554=EDGE_LOOP('',(#198,#199,#200,#201));
#555=EDGE_LOOP('',(#202,#203,#204,#205));
#556=EDGE_LOOP('',(#206,#207,#208,#209));
#557=EDGE_LOOP('',(#210,#211,#212,#213));
#558=EDGE_LOOP('',(#214,#215,#216,#217));
#559=EDGE_LOOP('',(#218,#219,#220,#221));
#560=EDGE_LOOP('',(#222,#223,#224,#225));
#561=EDGE_LOOP('',(#226,#227,#228,#229));
#562=EDGE_LOOP('',(#230,#231,#232,#233));
#563=EDGE_LOOP('',(#234,#235,#236,#237));
#564=EDGE_LOOP('',(#238,#239,#240,#241,#242,#243));
#565=EDGE_LOOP('',(#244,#245,#246,#247,#248,#249));
#566=EDGE_LOOP('',(#250,#251,#252,#253,#254,#255));
#567=EDGE_LOOP('',(#256));
#568=EDGE_LOOP('',(#257));
#569=EDGE_LOOP('',(#258));
#570=EDGE_LOOP('',(#259));
#571=EDGE_LOOP('',(#260));
#572=EDGE_LOOP('',(#261,#262,#263,#264,#265,#266));
#573=EDGE_LOOP('',(#267,#268,#269,#270));
#574=EDGE_LOOP('',(#271,#272,#273,#274));
#575=EDGE_LOOP('',(#275,#276,#277,#278));
#576=EDGE_LOOP('',(#279,#280,#281,#282));
#577=EDGE_LOOP('',(#283,#284,#285,#286));
#578=EDGE_LOOP('',(#287,#288,#289,#290));
#579=EDGE_LOOP('',(#291,#292,#293,#294));
#580=EDGE_LOOP('',(#295,#296,#297,#298));
#581=EDGE_LOOP('',(#299,#300,#301,#302));
#582=EDGE_LOOP('',(#303,#304,#305,#306));
#583=EDGE_LOOP('',(#307));
#584=EDGE_LOOP('',(#308));
#585=EDGE_LOOP('',(#309));
#586=EDGE_LOOP('',(#310));
#587=EDGE_LOOP('',(#311));
#588=EDGE_LOOP('',(#312));
#589=EDGE_LOOP('',(#313));
#590=EDGE_LOOP('',(#314));
#591=EDGE_LOOP('',(#315));
#592=EDGE_LOOP('',(#316));
#593=EDGE_LOOP('',(#317));
#594=EDGE_LOOP('',(#318));
#595=EDGE_LOOP('',(#319));
#596=EDGE_LOOP('',(#320));
#597=EDGE_LOOP('',(#321));
#598=EDGE_LOOP('',(#322));
#599=EDGE_LOOP('',(#323));
#600=EDGE_LOOP('',(#324));
#601=EDGE_LOOP('',(#325));
#602=EDGE_LOOP('',(#326));
#603=EDGE_LOOP('',(#327));
#604=EDGE_LOOP('',(#328));
#605=EDGE_LOOP('',(#329));
#606=EDGE_LOOP('',(#330));
#607=EDGE_LOOP('',(#331));
#608=EDGE_LOOP('',(#332));
#609=EDGE_LOOP('',(#333));
#610=EDGE_LOOP('',(#334));
#611=EDGE_LOOP('',(#335));
#612=EDGE_LOOP('',(#336));
#613=EDGE_LOOP('',(#337));
#614=EDGE_LOOP('',(#338));
#615=EDGE_LOOP('',(#339));
#616=EDGE_LOOP('',(#340));
#617=EDGE_LOOP('',(#341));
#618=EDGE_LOOP('',(#342));
#619=EDGE_LOOP('',(#343));
#620=EDGE_LOOP('',(#344));
#621=EDGE_LOOP('',(#345));
#622=EDGE_LOOP('',(#346));
#623=EDGE_LOOP('',(#347));
#624=EDGE_LOOP('',(#348));
#625=EDGE_LOOP('',(#349));
#626=EDGE_LOOP('',(#350));
#627=EDGE_LOOP('',(#351));
#628=FACE_BOUND('',#540,.T.);
#629=FACE_BOUND('',#541,.T.);
#630=FACE_BOUND('',#542,.T.);
#631=FACE_BOUND('',#543,.T.);
#632=FACE_BOUND('',#544,.T.);
#633=FACE_BOUND('',#545,.T.);
#634=FACE_BOUND('',#546,.T.);
#635=FACE_BOUND('',#547,.T.);
#636=FACE_BOUND('',#548,.T.);
#637=FACE_BOUND('',#549,.T.);
#638=FACE_BOUND('',#550,.T.);
#639=FACE_BOUND('',#551,.T.);
#640=FACE_BOUND('',#552,.T.);
#641=FACE_BOUND('',#553,.T.);
#642=FACE_BOUND('',#554,.T.);
#643=FACE_BOUND('',#555,.T.);
#644=FACE_BOUND('',#556,.T.);
#645=FACE_BOUND('',#557,.T.);
#646=FACE_BOUND('',#558,.T.);
#647=FACE_BOUND('',#559,.T.);
#648=FACE_BOUND('',#560,.T.);
#649=FACE_BOUND('',#561,.T.);
#650=FACE_BOUND('',#562,.T.);
#651=FACE_BOUND('',#563,.T.);
#652=FACE_BOUND('',#564,.T.);
#653=FACE_BOUND('',#565,.T.);
#654=FACE_BOUND('',#566,.T.);
#655=FACE_BOUND('',#567,.T.);
#656=FACE_BOUND('',#568,.T.);
#657=FACE_BOUND('',#569,.T.);
#658=FACE_BOUND('',#570,.T.);
#659=FACE_BOUND('',#571,.T.);
#660=FACE_BOUND('',#572,.T.);
#661=FACE_BOUND('',#573,.T.);
#662=FACE_BOUND('',#574,.T.);
#663=FACE_BOUND('',#575,.T.);
#664=FACE_BOUND('',#576,.T.);
#665=FACE_BOUND('',#577,.T.);
#666=FACE_BOUND('',#578,.T.);
#667=FACE_BOUND('',#579,.T.);
#668=FACE_BOUND('',#580,.T.);
#669=FACE_BOUND('',#581,.T.);
#670=FACE_BOUND('',#582,.T.);
#671=FACE_BOUND('',#583,.T.);
#672=FACE_BOUND('',#584,.T.);
#673=FACE_BOUND('',#585,.T.);
#674=FACE_BOUND('',#586,.T.);
#675=FACE_BOUND('',#587,.T.);
#676=FACE_BOUND('',#588,.T.);
#677=FACE_BOUND('',#589,.T.);
#678=FACE_BOUND('',#590,.T.);
#679=FACE_BOUND('',#591,.T.);
#680=FACE_BOUND('',#592,.T.);
#681=FACE_BOUND('',#593,.T.);
#682=FACE_BOUND('',#594,.T.);
#683=FACE_BOUND('',#595,.T.);
#684=FACE_BOUND('',#596,.T.);
#685=FACE_BOUND('',#597,.T.);
#686=FACE_BOUND('',#598,.T.);
#687=FACE_BOUND('',#599,.T.);
#688=FACE_BOUND('',#600,.T.);
#689=FACE_BOUND('',#601,.T.);
#690=FACE_BOUND('',#602,.T.);
#691=FACE_BOUND('',#603,.T.);
#692=FACE_BOUND('',#604,.T.);
#693=FACE_BOUND('',#605,.T.);
#694=FACE_BOUND('',#606,.T.);
#695=FACE_BOUND('',#607,.T.);
#696=FACE_BOUND('',#608,.T.);
#697=FACE_BOUND('',#609,.T.);
#698=FACE_BOUND('',#610,.T.);
#699=FACE_BOUND('',#611,.T.);
#700=FACE_BOUND('',#612,.T.);
#701=FACE_BOUND('',#613,.T.);
#702=FACE_BOUND('',#614,.T.);
#703=FACE_BOUND('',#615,.T.);
#704=FACE_BOUND('',#616,.T.);
#705=FACE_BOUND('',#617,.T.);
#706=FACE_BOUND('',#618,.T.);
#707=FACE_BOUND('',#619,.T.);
#708=FACE_BOUND('',#620,.T.);
#709=FACE_BOUND('',#621,.T.);
#710=FACE_BOUND('',#622,.T.);
#711=FACE_BOUND('',#623,.T.);
#712=FACE_BOUND('',#624,.T.);
#713=FACE_BOUND('',#625,.T.);
#714=FACE_BOUND('',#626,.T.);
#715=FACE_BOUND('',#627,.T.);
#716=CYLINDRICAL_SURFACE('',#799,0.0011);
#717=CYLINDRICAL_SURFACE('',#802,0.0011);
#718=CYLINDRICAL_SURFACE('',#805,0.0011);
#719=CYLINDRICAL_SURFACE('',#808,0.0011);
#720=CYLINDRICAL_SURFACE('',#811,0.0011);
#721=CYLINDRICAL_SURFACE('',#844,0.003);
#722=CYLINDRICAL_SURFACE('',#848,0.003);
#723=CYLINDRICAL_SURFACE('',#852,0.003);
#724=CYLINDRICAL_SURFACE('',#856,0.003);
#725=CYLINDRICAL_SURFACE('',#860,0.003);
#726=CYLINDRICAL_SURFACE('',#866,0.0016);
#727=CYLINDRICAL_SURFACE('',#869,0.0016);
#728=CYLINDRICAL_SURFACE('',#870,0.0016);
#729=CYLINDRICAL_SURFACE('',#873,0.0016);
#730=CYLINDRICAL_SURFACE('',#876,0.0016);
#731=ADVANCED_FACE('',(#628,#629),#716,.F.);
#732=ADVANCED_FACE('',(#630,#631),#717,.F.);
#733=ADVANCED_FACE('',(#632,#633),#718,.F.);
#734=ADVANCED_FACE('',(#634,#635),#719,.F.);
#735=ADVANCED_FACE('',(#636,#637),#720,.F.);
#736=ADVANCED_FACE('',(#638,#639),#132,.T.);
#737=ADVANCED_FACE('',(#640,#641),#133,.F.);
#738=ADVANCED_FACE('',(#642),#134,.F.);
#739=ADVANCED_FACE('',(#643),#135,.F.);
#740=ADVANCED_FACE('',(#644),#136,.F.);
#741=ADVANCED_FACE('',(#645),#137,.F.);
#742=ADVANCED_FACE('',(#646),#138,.F.);
#743=ADVANCED_FACE('',(#647),#139,.T.);
#744=ADVANCED_FACE('',(#648),#140,.T.);
#745=ADVANCED_FACE('',(#649),#141,.T.);
#746=ADVANCED_FACE('',(#650),#142,.T.);
#747=ADVANCED_FACE('',(#651),#143,.T.);
#748=ADVANCED_FACE('',(#652,#653),#144,.T.);
#749=ADVANCED_FACE('',(#654),#145,.F.);
#750=ADVANCED_FACE('',(#655,#656,#657,#658,#659,#660),#146,.T.);
#751=ADVANCED_FACE('',(#661),#147,.T.);
#752=ADVANCED_FACE('',(#662),#148,.F.);
#753=ADVANCED_FACE('',(#663),#149,.F.);
#754=ADVANCED_FACE('',(#664),#150,.T.);
#755=ADVANCED_FACE('',(#665),#151,.T.);
#756=ADVANCED_FACE('',(#666),#152,.T.);
#757=ADVANCED_FACE('',(#667),#153,.T.);
#758=ADVANCED_FACE('',(#668),#154,.T.);
#759=ADVANCED_FACE('',(#669),#155,.T.);
#760=ADVANCED_FACE('',(#670),#156,.T.);
#761=ADVANCED_FACE('',(#671,#672),#721,.T.);
#762=ADVANCED_FACE('',(#673,#674),#157,.T.);
#763=ADVANCED_FACE('',(#675,#676),#722,.T.);
#764=ADVANCED_FACE('',(#677,#678),#158,.T.);
#765=ADVANCED_FACE('',(#679,#680),#723,.T.);
#766=ADVANCED_FACE('',(#681,#682),#159,.T.);
#767=ADVANCED_FACE('',(#683,#684),#724,.T.);
#768=ADVANCED_FACE('',(#685,#686),#160,.T.);
#769=ADVANCED_FACE('',(#687,#688),#725,.T.);
#770=ADVANCED_FACE('',(#689,#690),#161,.T.);
#771=ADVANCED_FACE('',(#691,#692),#162,.T.);
#772=ADVANCED_FACE('',(#693,#694),#726,.F.);
#773=ADVANCED_FACE('',(#695,#696),#163,.T.);
#774=ADVANCED_FACE('',(#697,#698),#727,.F.);
#775=ADVANCED_FACE('',(#699,#700),#728,.F.);
#776=ADVANCED_FACE('',(#701,#702),#164,.T.);
#777=ADVANCED_FACE('',(#703,#704),#729,.F.);
#778=ADVANCED_FACE('',(#705,#706),#165,.T.);
#779=ADVANCED_FACE('',(#707,#708),#730,.F.);
#780=ADVANCED_FACE('',(#709,#710),#166,.T.);
#781=ADVANCED_FACE('',(#711),#167,.T.);
#782=ADVANCED_FACE('',(#712),#168,.T.);
#783=ADVANCED_FACE('',(#713),#169,.T.);
#784=ADVANCED_FACE('',(#714),#170,.T.);
#785=ADVANCED_FACE('',(#715),#171,.T.);
#786=CLOSED_SHELL('',(#731,#732,#733,#734,#735,#736,#737,#738,#739,#740,
#741,#742,#743,#744,#745,#746,#747,#748,#749,#750,#751,#752,#753,#754,#755,
#756,#757,#758,#759,#760,#761,#762,#763,#764,#765,#766,#767,#768,#769,#770,
#771,#772,#773,#774,#775,#776,#777,#778,#779,#780,#781,#782,#783,#784,#785));
#787=STYLED_ITEM('',(#788),#795);
#788=PRESENTATION_STYLE_ASSIGNMENT((#789));
#789=SURFACE_STYLE_USAGE(.BOTH.,#790);
#790=SURFACE_SIDE_STYLE('',(#791));
#791=SURFACE_STYLE_FILL_AREA(#792);
#792=FILL_AREA_STYLE('',(#793));
#793=FILL_AREA_STYLE_COLOUR('',#794);
#794=COLOUR_RGB('',0.301960784313725,0.301960784313725,0.301960784313725);
#795=MANIFOLD_SOLID_BREP('Part 1',#786);
#796=SHAPE_DEFINITION_REPRESENTATION(#1336,#797);
#797=SHAPE_REPRESENTATION('Part 1',(#798),#1331);
#798=AXIS2_PLACEMENT_3D('',#1116,#884,#885);
#799=AXIS2_PLACEMENT_3D('',#1117,#886,#887);
#800=AXIS2_PLACEMENT_3D('',#1118,#888,#889);
#801=AXIS2_PLACEMENT_3D('',#1120,#890,#891);
#802=AXIS2_PLACEMENT_3D('',#1122,#892,#893);
#803=AXIS2_PLACEMENT_3D('',#1123,#894,#895);
#804=AXIS2_PLACEMENT_3D('',#1125,#896,#897);
#805=AXIS2_PLACEMENT_3D('',#1127,#898,#899);
#806=AXIS2_PLACEMENT_3D('',#1128,#900,#901);
#807=AXIS2_PLACEMENT_3D('',#1130,#902,#903);
#808=AXIS2_PLACEMENT_3D('',#1132,#904,#905);
#809=AXIS2_PLACEMENT_3D('',#1133,#906,#907);
#810=AXIS2_PLACEMENT_3D('',#1135,#908,#909);
#811=AXIS2_PLACEMENT_3D('',#1137,#910,#911);
#812=AXIS2_PLACEMENT_3D('',#1138,#912,#913);
#813=AXIS2_PLACEMENT_3D('',#1140,#914,#915);
#814=AXIS2_PLACEMENT_3D('',#1142,#916,#917);
#815=AXIS2_PLACEMENT_3D('',#1159,#926,#927);
#816=AXIS2_PLACEMENT_3D('',#1176,#936,#937);
#817=AXIS2_PLACEMENT_3D('',#1182,#941,#942);
#818=AXIS2_PLACEMENT_3D('',#1188,#946,#947);
#819=AXIS2_PLACEMENT_3D('',#1194,#951,#952);
#820=AXIS2_PLACEMENT_3D('',#1200,#956,#957);
#821=AXIS2_PLACEMENT_3D('',#1203,#960,#961);
#822=AXIS2_PLACEMENT_3D('',#1212,#966,#967);
#823=AXIS2_PLACEMENT_3D('',#1215,#970,#971);
#824=AXIS2_PLACEMENT_3D('',#1221,#975,#976);
#825=AXIS2_PLACEMENT_3D('',#1227,#980,#981);
#826=AXIS2_PLACEMENT_3D('',#1230,#984,#985);
#827=AXIS2_PLACEMENT_3D('',#1243,#992,#993);
#828=AXIS2_PLACEMENT_3D('',#1244,#994,#995);
#829=AXIS2_PLACEMENT_3D('',#1245,#996,#997);
#830=AXIS2_PLACEMENT_3D('',#1247,#998,#999);
#831=AXIS2_PLACEMENT_3D('',#1249,#1000,#1001);
#832=AXIS2_PLACEMENT_3D('',#1251,#1002,#1003);
#833=AXIS2_PLACEMENT_3D('',#1253,#1004,#1005);
#834=AXIS2_PLACEMENT_3D('',#1255,#1006,#1007);
#835=AXIS2_PLACEMENT_3D('',#1258,#1010,#1011);
#836=AXIS2_PLACEMENT_3D('',#1260,#1013,#1014);
#837=AXIS2_PLACEMENT_3D('',#1262,#1016,#1017);
#838=AXIS2_PLACEMENT_3D('',#1263,#1018,#1019);
#839=AXIS2_PLACEMENT_3D('',#1266,#1022,#1023);
#840=AXIS2_PLACEMENT_3D('',#1268,#1025,#1026);
#841=AXIS2_PLACEMENT_3D('',#1270,#1028,#1029);
#842=AXIS2_PLACEMENT_3D('',#1272,#1031,#1032);
#843=AXIS2_PLACEMENT_3D('',#1274,#1034,#1035);
#844=AXIS2_PLACEMENT_3D('',#1275,#1036,#1037);
#845=AXIS2_PLACEMENT_3D('',#1276,#1038,#1039);
#846=AXIS2_PLACEMENT_3D('',#1278,#1040,#1041);
#847=AXIS2_PLACEMENT_3D('',#1279,#1042,#1043);
#848=AXIS2_PLACEMENT_3D('',#1281,#1044,#1045);
#849=AXIS2_PLACEMENT_3D('',#1282,#1046,#1047);
#850=AXIS2_PLACEMENT_3D('',#1284,#1048,#1049);
#851=AXIS2_PLACEMENT_3D('',#1285,#1050,#1051);
#852=AXIS2_PLACEMENT_3D('',#1287,#1052,#1053);
#853=AXIS2_PLACEMENT_3D('',#1288,#1054,#1055);
#854=AXIS2_PLACEMENT_3D('',#1290,#1056,#1057);
#855=AXIS2_PLACEMENT_3D('',#1291,#1058,#1059);
#856=AXIS2_PLACEMENT_3D('',#1293,#1060,#1061);
#857=AXIS2_PLACEMENT_3D('',#1294,#1062,#1063);
#858=AXIS2_PLACEMENT_3D('',#1296,#1064,#1065);
#859=AXIS2_PLACEMENT_3D('',#1297,#1066,#1067);
#860=AXIS2_PLACEMENT_3D('',#1299,#1068,#1069);
#861=AXIS2_PLACEMENT_3D('',#1300,#1070,#1071);
#862=AXIS2_PLACEMENT_3D('',#1302,#1072,#1073);
#863=AXIS2_PLACEMENT_3D('',#1303,#1074,#1075);
#864=AXIS2_PLACEMENT_3D('',#1305,#1076,#1077);
#865=AXIS2_PLACEMENT_3D('',#1306,#1078,#1079);
#866=AXIS2_PLACEMENT_3D('',#1308,#1080,#1081);
#867=AXIS2_PLACEMENT_3D('',#1309,#1082,#1083);
#868=AXIS2_PLACEMENT_3D('',#1310,#1084,#1085);
#869=AXIS2_PLACEMENT_3D('',#1312,#1086,#1087);
#870=AXIS2_PLACEMENT_3D('',#1313,#1088,#1089);
#871=AXIS2_PLACEMENT_3D('',#1314,#1090,#1091);
#872=AXIS2_PLACEMENT_3D('',#1316,#1092,#1093);
#873=AXIS2_PLACEMENT_3D('',#1317,#1094,#1095);
#874=AXIS2_PLACEMENT_3D('',#1318,#1096,#1097);
#875=AXIS2_PLACEMENT_3D('',#1320,#1098,#1099);
#876=AXIS2_PLACEMENT_3D('',#1321,#1100,#1101);
#877=AXIS2_PLACEMENT_3D('',#1322,#1102,#1103);
#878=AXIS2_PLACEMENT_3D('',#1324,#1104,#1105);
#879=AXIS2_PLACEMENT_3D('',#1325,#1106,#1107);
#880=AXIS2_PLACEMENT_3D('',#1326,#1108,#1109);
#881=AXIS2_PLACEMENT_3D('',#1327,#1110,#1111);
#882=AXIS2_PLACEMENT_3D('',#1328,#1112,#1113);
#883=AXIS2_PLACEMENT_3D('',#1329,#1114,#1115);
#884=DIRECTION('',(0.,0.,1.));
#885=DIRECTION('',(1.,0.,0.));
#886=DIRECTION('',(0.,0.,-1.));
#887=DIRECTION('',(-1.,0.,0.));
#888=DIRECTION('',(0.,0.,1.));
#889=DIRECTION('',(1.,0.,0.));
#890=DIRECTION('',(0.,0.,1.));
#891=DIRECTION('',(1.,0.,0.));
#892=DIRECTION('',(0.,0.,-1.));
#893=DIRECTION('',(-1.,0.,0.));
#894=DIRECTION('',(0.,0.,1.));
#895=DIRECTION('',(1.,0.,0.));
#896=DIRECTION('',(0.,0.,1.));
#897=DIRECTION('',(1.,0.,0.));
#898=DIRECTION('',(0.,0.,-1.));
#899=DIRECTION('',(-1.,0.,0.));
#900=DIRECTION('',(0.,0.,1.));
#901=DIRECTION('',(1.,0.,0.));
#902=DIRECTION('',(0.,0.,1.));
#903=DIRECTION('',(1.,0.,0.));
#904=DIRECTION('',(0.,0.,-1.));
#905=DIRECTION('',(-1.,0.,0.));
#906=DIRECTION('',(0.,0.,-1.));
#907=DIRECTION('',(1.,0.,0.));
#908=DIRECTION('',(0.,0.,1.));
#909=DIRECTION('',(1.,0.,0.));
#910=DIRECTION('',(0.,0.,-1.));
#911=DIRECTION('',(-1.,0.,0.));
#912=DIRECTION('',(0.,0.,-1.));
#913=DIRECTION('',(1.,0.,0.));
#914=DIRECTION('',(0.,0.,1.));
#915=DIRECTION('',(1.,0.,0.));
#916=DIRECTION('',(1.,1.20612233892187E-16,0.));
#917=DIRECTION('',(-1.20612233892187E-16,1.,0.));
#918=DIRECTION('',(1.24215572525234E-16,-1.,0.));
#919=DIRECTION('',(0.,0.,-1.));
#920=DIRECTION('',(1.20612233892187E-16,-1.,0.));
#921=DIRECTION('',(0.,0.,-1.));
#922=DIRECTION('',(5.13445088644863E-32,-4.25699012509646E-16,1.));
#923=DIRECTION('',(-1.20612233892187E-16,1.,4.95635278850513E-16));
#924=DIRECTION('',(5.13445088644863E-32,-4.25699012509646E-16,1.));
#925=DIRECTION('',(-1.20612233892187E-16,1.,4.96603316504518E-16));
#926=DIRECTION('',(1.,1.28745321237135E-16,0.));
#927=DIRECTION('',(-1.28745321237135E-16,1.,0.));
#928=DIRECTION('',(0.,0.,-1.));
#929=DIRECTION('',(-1.28745321237135E-16,1.,0.));
#930=DIRECTION('',(0.,0.,-1.));
#931=DIRECTION('',(1.28745321237135E-16,-1.,0.));
#932=DIRECTION('',(1.28745321237135E-16,-1.,-4.95635278850513E-16));
#933=DIRECTION('',(-5.48067561158855E-32,4.25699012509646E-16,-1.));
#934=DIRECTION('',(1.28745321237135E-16,-1.,-4.96603316504518E-16));
#935=DIRECTION('',(-5.48067561158855E-32,4.25699012509646E-16,-1.));
#936=DIRECTION('',(-1.09879555089584E-16,1.,0.));
#937=DIRECTION('',(-1.,-1.09879555089584E-16,0.));
#938=DIRECTION('',(0.,0.,-1.));
#939=DIRECTION('',(-1.,-1.09879555089584E-16,0.));
#940=DIRECTION('',(1.,1.09879555089584E-16,0.));
#941=DIRECTION('',(-1.,-2.19759110179168E-16,0.));
#942=DIRECTION('',(2.19759110179168E-16,-1.,0.));
#943=DIRECTION('',(0.,0.,-1.));
#944=DIRECTION('',(2.19759110179168E-16,-1.,0.));
#945=DIRECTION('',(-2.19759110179168E-16,1.,0.));
#946=DIRECTION('',(1.17013387924237E-16,-1.,0.));
#947=DIRECTION('',(1.,1.17013387924237E-16,0.));
#948=DIRECTION('',(0.,0.,-1.));
#949=DIRECTION('',(1.,1.17013387924237E-16,0.));
#950=DIRECTION('',(-1.,-1.17013387924237E-16,0.));
#951=DIRECTION('',(-1.,-2.77555756156289E-16,0.));
#952=DIRECTION('',(2.77555756156289E-16,-1.,0.));
#953=DIRECTION('',(0.,0.,-1.));
#954=DIRECTION('',(2.77555756156289E-16,-1.,0.));
#955=DIRECTION('',(-2.77555756156289E-16,1.,0.));
#956=DIRECTION('',(1.55348370982998E-16,-1.,0.));
#957=DIRECTION('',(1.,1.55348370982998E-16,0.));
#958=DIRECTION('',(1.,1.55348370982998E-16,0.));
#959=DIRECTION('',(-1.,-1.55348370982998E-16,0.));
#960=DIRECTION('',(-1.,-1.15359832151409E-16,0.));
#961=DIRECTION('',(1.15359832151409E-16,-1.,0.));
#962=DIRECTION('',(-1.15359832151409E-16,1.,0.));
#963=DIRECTION('',(0.,0.,-1.));
#964=DIRECTION('',(-1.15359832151409E-16,1.,0.));
#965=DIRECTION('',(0.,0.,-1.));
#966=DIRECTION('',(-1.15359832151409E-16,1.,0.));
#967=DIRECTION('',(-1.,-1.15359832151409E-16,0.));
#968=DIRECTION('',(1.,1.15359832151409E-16,0.));
#969=DIRECTION('',(1.,1.15359832151409E-16,0.));
#970=DIRECTION('',(1.13752359080446E-16,-1.,0.));
#971=DIRECTION('',(1.,1.13752359080446E-16,0.));
#972=DIRECTION('',(-1.,-1.13752359080446E-16,0.));
#973=DIRECTION('',(0.,0.,-1.));
#974=DIRECTION('',(-1.,-1.13752359080446E-16,0.));
#975=DIRECTION('',(-1.,-2.77555756156289E-16,0.));
#976=DIRECTION('',(2.77555756156289E-16,-1.,0.));
#977=DIRECTION('',(-2.77555756156289E-16,1.,0.));
#978=DIRECTION('',(0.,0.,-1.));
#979=DIRECTION('',(-2.77555756156289E-16,1.,0.));
#980=DIRECTION('',(1.24326724669501E-16,-1.,0.));
#981=DIRECTION('',(1.,1.24326724669501E-16,0.));
#982=DIRECTION('',(-1.,-1.24326724669501E-16,0.));
#983=DIRECTION('',(-1.,-1.24326724669501E-16,0.));
#984=DIRECTION('',(0.,0.,1.));
#985=DIRECTION('',(1.,0.,0.));
#986=DIRECTION('',(-2.19759110179168E-16,1.,0.));
#987=DIRECTION('',(-1.,-1.17013387924237E-16,0.));
#988=DIRECTION('',(-2.77555756156289E-16,1.,0.));
#989=DIRECTION('',(-1.,-1.55348370982998E-16,0.));
#990=DIRECTION('',(1.28745321237135E-16,-1.,0.));
#991=DIRECTION('',(1.,1.09879555089584E-16,0.));
#992=DIRECTION('',(0.,0.,1.));
#993=DIRECTION('',(1.,0.,0.));
#994=DIRECTION('',(0.,0.,1.));
#995=DIRECTION('',(1.,0.,0.));
#996=DIRECTION('',(0.,0.,1.));
#997=DIRECTION('',(1.,0.,0.));
#998=DIRECTION('',(0.,0.,1.));
#999=DIRECTION('',(1.,0.,0.));
#1000=DIRECTION('',(0.,0.,1.));
#1001=DIRECTION('',(1.,0.,0.));
#1002=DIRECTION('',(0.,0.,1.));
#1003=DIRECTION('',(1.,0.,0.));
#1004=DIRECTION('',(0.,0.,1.));
#1005=DIRECTION('',(1.,0.,0.));
#1006=DIRECTION('',(-6.38107231920662E-32,4.95635278850513E-16,-1.));
#1007=DIRECTION('',(0.,1.,4.95635278850513E-16));
#1008=DIRECTION('',(-1.,-1.28745321237135E-16,0.));
#1009=DIRECTION('',(-1.,-1.28745321237135E-16,0.));
#1010=DIRECTION('',(-1.28745321237135E-16,1.,4.25699012509646E-16));
#1011=DIRECTION('',(0.,-4.25699012509646E-16,1.));
#1012=DIRECTION('',(-1.,-1.28745321237135E-16,0.));
#1013=DIRECTION('',(-6.39353535108007E-32,4.96603316504518E-16,-1.));
#1014=DIRECTION('',(0.,1.,4.96603316504518E-16));
#1015=DIRECTION('',(-1.,-1.28745321237135E-16,0.));
#1016=DIRECTION('',(-1.28745321237135E-16,1.,4.25699012509646E-16));
#1017=DIRECTION('',(0.,-4.25699012509646E-16,1.));
#1018=DIRECTION('',(-0.707106781186548,-9.10366896928186E-17,0.707106781186547));
#1019=DIRECTION('',(-1.28745321237135E-16,1.,0.));
#1020=DIRECTION('',(0.577350269189625,-0.577350269189627,0.577350269189626));
#1021=DIRECTION('',(0.577350269189625,0.577350269189627,0.577350269189626));
#1022=DIRECTION('',(7.76965785176056E-17,-0.707106781186547,0.707106781186548));
#1023=DIRECTION('',(-1.,-1.09879555089584E-16,0.));
#1024=DIRECTION('',(-0.577350269189626,0.577350269189626,0.577350269189626));
#1025=DIRECTION('',(-1.09847886568361E-16,0.707106781186547,0.707106781186549));
#1026=DIRECTION('',(1.,1.55348370982998E-16,0.));
#1027=DIRECTION('',(-0.577350269189625,-0.577350269189627,0.577350269189625));
#1028=DIRECTION('',(0.707106781186548,1.55393157035211E-16,0.707106781186547));
#1029=DIRECTION('',(2.19759110179168E-16,-1.,0.));
#1030=DIRECTION('',(-0.577350269189625,-0.577350269189627,0.577350269189626));
#1031=DIRECTION('',(0.707106781186548,1.96261557335472E-16,0.707106781186547));
#1032=DIRECTION('',(2.77555756156289E-16,-1.,0.));
#1033=DIRECTION('',(0.577350269189625,0.577350269189627,-0.577350269189626));
#1034=DIRECTION('',(-8.27409600908397E-17,0.707106781186547,0.707106781186548));
#1035=DIRECTION('',(1.,1.17013387924237E-16,0.));
#1036=DIRECTION('',(0.,0.,-1.));
#1037=DIRECTION('',(-1.,0.,0.));
#1038=DIRECTION('',(0.,0.,1.));
#1039=DIRECTION('',(1.,0.,0.));
#1040=DIRECTION('',(0.,0.,1.));
#1041=DIRECTION('',(1.,0.,0.));
#1042=DIRECTION('',(0.,0.,1.));
#1043=DIRECTION('',(1.,0.,0.));
#1044=DIRECTION('',(0.,0.,-1.));
#1045=DIRECTION('',(-1.,0.,0.));
#1046=DIRECTION('',(0.,0.,1.));
#1047=DIRECTION('',(1.,0.,0.));
#1048=DIRECTION('',(0.,0.,1.));
#1049=DIRECTION('',(1.,0.,0.));
#1050=DIRECTION('',(0.,0.,1.));
#1051=DIRECTION('',(1.,0.,0.));
#1052=DIRECTION('',(0.,0.,-1.));
#1053=DIRECTION('',(-1.,0.,0.));
#1054=DIRECTION('',(0.,0.,1.));
#1055=DIRECTION('',(1.,0.,0.));
#1056=DIRECTION('',(0.,0.,1.));
#1057=DIRECTION('',(1.,0.,0.));
#1058=DIRECTION('',(0.,0.,1.));
#1059=DIRECTION('',(1.,0.,0.));
#1060=DIRECTION('',(0.,0.,-1.));
#1061=DIRECTION('',(-1.,0.,0.));
#1062=DIRECTION('',(0.,0.,-1.));
#1063=DIRECTION('',(1.,0.,0.));
#1064=DIRECTION('',(0.,0.,1.));
#1065=DIRECTION('',(1.,0.,0.));
#1066=DIRECTION('',(0.,0.,-1.));
#1067=DIRECTION('',(1.,0.,0.));
#1068=DIRECTION('',(0.,0.,-1.));
#1069=DIRECTION('',(-1.,0.,0.));
#1070=DIRECTION('',(0.,0.,-1.));
#1071=DIRECTION('',(1.,0.,0.));
#1072=DIRECTION('',(0.,0.,1.));
#1073=DIRECTION('',(1.,0.,0.));
#1074=DIRECTION('',(0.,0.,-1.));
#1075=DIRECTION('',(1.,0.,0.));
#1076=DIRECTION('',(0.,0.,1.));
#1077=DIRECTION('',(1.,0.,0.));
#1078=DIRECTION('',(0.,0.,-1.));
#1079=DIRECTION('',(1.,0.,0.));
#1080=DIRECTION('',(0.,0.,1.));
#1081=DIRECTION('',(1.,0.,0.));
#1082=DIRECTION('',(0.,0.,1.));
#1083=DIRECTION('',(1.,0.,0.));
#1084=DIRECTION('',(0.,0.,-1.));
#1085=DIRECTION('',(1.,0.,0.));
#1086=DIRECTION('',(0.,0.,1.));
#1087=DIRECTION('',(1.,0.,0.));
#1088=DIRECTION('',(0.,0.,1.));
#1089=DIRECTION('',(1.,0.,0.));
#1090=DIRECTION('',(0.,0.,1.));
#1091=DIRECTION('',(1.,0.,0.));
#1092=DIRECTION('',(0.,0.,1.));
#1093=DIRECTION('',(1.,0.,0.));
#1094=DIRECTION('',(0.,0.,1.));
#1095=DIRECTION('',(1.,0.,0.));
#1096=DIRECTION('',(0.,0.,1.));
#1097=DIRECTION('',(1.,0.,0.));
#1098=DIRECTION('',(0.,0.,1.));
#1099=DIRECTION('',(1.,0.,0.));
#1100=DIRECTION('',(0.,0.,1.));
#1101=DIRECTION('',(1.,0.,0.));
#1102=DIRECTION('',(0.,0.,1.));
#1103=DIRECTION('',(1.,0.,0.));
#1104=DIRECTION('',(0.,0.,1.));
#1105=DIRECTION('',(1.,0.,0.));
#1106=DIRECTION('',(0.,0.,1.));
#1107=DIRECTION('',(1.,0.,0.));
#1108=DIRECTION('',(0.,0.,1.));
#1109=DIRECTION('',(1.,0.,0.));
#1110=DIRECTION('',(0.,0.,1.));
#1111=DIRECTION('',(1.,0.,0.));
#1112=DIRECTION('',(0.,0.,1.));
#1113=DIRECTION('',(1.,0.,0.));
#1114=DIRECTION('',(0.,0.,1.));
#1115=DIRECTION('',(1.,0.,0.));
#1116=CARTESIAN_POINT('',(0.,0.,0.));
#1117=CARTESIAN_POINT('',(0.01905,-0.01905,-0.0025));
#1118=CARTESIAN_POINT('',(0.01905,-0.01905,-0.0105));
#1119=CARTESIAN_POINT('',(0.02015,-0.01905,-0.0105));
#1120=CARTESIAN_POINT('',(0.01905,-0.01905,-0.007));
#1121=CARTESIAN_POINT('',(0.02015,-0.01905,-0.007));
#1122=CARTESIAN_POINT('',(0.01905,-0.05715,-0.0025));
#1123=CARTESIAN_POINT('',(0.01905,-0.05715,-0.0105));
#1124=CARTESIAN_POINT('',(0.02015,-0.05715,-0.0105));
#1125=CARTESIAN_POINT('',(0.01905,-0.05715,-0.007));
#1126=CARTESIAN_POINT('',(0.02015,-0.05715,-0.007));
#1127=CARTESIAN_POINT('',(0.05715,-0.09525,-0.0025));
#1128=CARTESIAN_POINT('',(0.05715,-0.09525,-0.0105));
#1129=CARTESIAN_POINT('',(0.05825,-0.09525,-0.0105));
#1130=CARTESIAN_POINT('',(0.05715,-0.09525,-0.007));
#1131=CARTESIAN_POINT('',(0.05825,-0.09525,-0.007));
#1132=CARTESIAN_POINT('',(0.09525,-0.05715,-0.0025));
#1133=CARTESIAN_POINT('',(0.09525,-0.05715,-0.0105));
#1134=CARTESIAN_POINT('',(0.09635,-0.05715,-0.0105));
#1135=CARTESIAN_POINT('',(0.09525,-0.05715,-0.007));
#1136=CARTESIAN_POINT('',(0.09635,-0.05715,-0.007));
#1137=CARTESIAN_POINT('',(0.09525,-0.01905,-0.0025));
#1138=CARTESIAN_POINT('',(0.09525,-0.01905,-0.0105));
#1139=CARTESIAN_POINT('',(0.09635,-0.01905,-0.0105));
#1140=CARTESIAN_POINT('',(0.09525,-0.01905,-0.007));
#1141=CARTESIAN_POINT('',(0.09635,-0.01905,-0.007));
#1142=CARTESIAN_POINT('',(-0.003,-0.0543759087823331,0.0125));
#1143=CARTESIAN_POINT('',(-0.003,0.0227629649788142,-0.0095));
#1144=CARTESIAN_POINT('',(-0.003,0.028,-0.0095));
#1145=CARTESIAN_POINT('',(-0.003,-0.1173,-0.0095));
#1146=CARTESIAN_POINT('',(-0.003,0.028,0.0125));
#1147=CARTESIAN_POINT('',(-0.003,0.028,0.0125));
#1148=CARTESIAN_POINT('',(-0.003,-0.0543759087823331,0.0125));
#1149=CARTESIAN_POINT('',(-0.003,-0.1173,0.0125));
#1150=CARTESIAN_POINT('',(-0.003,-0.1173,0.0125));
#1151=CARTESIAN_POINT('',(-0.003,0.00611,0.0125));
#1152=CARTESIAN_POINT('',(-0.003,0.00611,-0.000115000000000004));
#1153=CARTESIAN_POINT('',(-0.003,0.00611,0.008035));
#1154=CARTESIAN_POINT('',(-0.003,-0.0543759087823331,0.008035));
#1155=CARTESIAN_POINT('',(-0.003,0.02011,0.008035));
#1156=CARTESIAN_POINT('',(-0.003,0.02011,0.0125));
#1157=CARTESIAN_POINT('',(-0.003,0.02011,-0.000114999999999997));
#1158=CARTESIAN_POINT('',(-0.003,-0.054375908782333,-0.000115000000000033));
#1159=CARTESIAN_POINT('',(-0.006,0.0242629649788141,0.0125));
#1160=CARTESIAN_POINT('',(-0.006,-0.1203,0.0125));
#1161=CARTESIAN_POINT('',(-0.006,-0.1203,0.0105));
#1162=CARTESIAN_POINT('',(-0.006,-0.1203,-0.0125));
#1163=CARTESIAN_POINT('',(-0.006,0.031,0.0105));
#1164=CARTESIAN_POINT('',(-0.006,0.031,0.0105));
#1165=CARTESIAN_POINT('',(-0.006,0.031,0.0125));
#1166=CARTESIAN_POINT('',(-0.006,0.031,-0.0125));
#1167=CARTESIAN_POINT('',(-0.006,0.0242629649788141,-0.0125));
#1168=CARTESIAN_POINT('',(-0.006,0.01311,0.008035));
#1169=CARTESIAN_POINT('',(-0.006,0.02011,0.008035));
#1170=CARTESIAN_POINT('',(-0.006,0.00611,0.008035));
#1171=CARTESIAN_POINT('',(-0.006,0.00611,0.00396));
#1172=CARTESIAN_POINT('',(-0.006,0.00611,-0.000115000000000004));
#1173=CARTESIAN_POINT('',(-0.006,0.01311,-0.000115));
#1174=CARTESIAN_POINT('',(-0.006,0.02011,-0.000114999999999997));
#1175=CARTESIAN_POINT('',(-0.006,0.02011,0.00396));
#1176=CARTESIAN_POINT('',(0.05715,-0.1203,0.0125));
#1177=CARTESIAN_POINT('',(0.1203,-0.1203,0.0125));
#1178=CARTESIAN_POINT('',(0.1203,-0.1203,0.0105));
#1179=CARTESIAN_POINT('',(0.1203,-0.1203,-0.0125));
#1180=CARTESIAN_POINT('',(-0.006,-0.1203,0.0105));
#1181=CARTESIAN_POINT('',(0.05715,-0.1203,-0.0125));
#1182=CARTESIAN_POINT('',(0.1203,-0.05715,0.0125));
#1183=CARTESIAN_POINT('',(0.1203,0.006,0.0125));
#1184=CARTESIAN_POINT('',(0.1203,0.006,0.0105));
#1185=CARTESIAN_POINT('',(0.1203,0.006,-0.0125));
#1186=CARTESIAN_POINT('',(0.1203,-0.1203,0.0105));
#1187=CARTESIAN_POINT('',(0.1203,-0.05715,-0.0125));
#1188=CARTESIAN_POINT('',(0.09065,0.006,0.0125));
#1189=CARTESIAN_POINT('',(0.061,0.006,0.0125));
#1190=CARTESIAN_POINT('',(0.061,0.006,0.0105));
#1191=CARTESIAN_POINT('',(0.061,0.006,-0.0125));
#1192=CARTESIAN_POINT('',(0.1203,0.006,0.0105));
#1193=CARTESIAN_POINT('',(0.09065,0.006,-0.0125));
#1194=CARTESIAN_POINT('',(0.061,0.0185,0.0125));
#1195=CARTESIAN_POINT('',(0.061,0.031,0.0125));
#1196=CARTESIAN_POINT('',(0.061,0.031,0.0105));
#1197=CARTESIAN_POINT('',(0.061,0.031,-0.0125));
#1198=CARTESIAN_POINT('',(0.061,0.006,0.0105));
#1199=CARTESIAN_POINT('',(0.061,0.0185,-0.0125));
#1200=CARTESIAN_POINT('',(0.0275,0.031,0.0125));
#1201=CARTESIAN_POINT('',(0.061,0.031,0.0105));
#1202=CARTESIAN_POINT('',(0.0275,0.031,-0.0125));
#1203=CARTESIAN_POINT('',(0.1173,-0.05715,0.0125));
#1204=CARTESIAN_POINT('',(0.1173,-0.05715,-0.0095));
#1205=CARTESIAN_POINT('',(0.1173,-0.1173,-0.0095));
#1206=CARTESIAN_POINT('',(0.1173,0.003,-0.0095));
#1207=CARTESIAN_POINT('',(0.1173,-0.1173,0.0125));
#1208=CARTESIAN_POINT('',(0.1173,-0.1173,0.0125));
#1209=CARTESIAN_POINT('',(0.1173,-0.05715,0.0125));
#1210=CARTESIAN_POINT('',(0.1173,0.003,0.0125));
#1211=CARTESIAN_POINT('',(0.1173,0.003,0.0125));
#1212=CARTESIAN_POINT('',(0.05715,-0.1173,0.0125));
#1213=CARTESIAN_POINT('',(0.05715,-0.1173,-0.0095));
#1214=CARTESIAN_POINT('',(0.05715,-0.1173,0.0125));
#1215=CARTESIAN_POINT('',(0.0275,0.028,0.0125));
#1216=CARTESIAN_POINT('',(0.0275,0.028,-0.0095));
#1217=CARTESIAN_POINT('',(0.058,0.028,-0.0095));
#1218=CARTESIAN_POINT('',(0.058,0.028,0.0125));
#1219=CARTESIAN_POINT('',(0.058,0.028,0.0125));
#1220=CARTESIAN_POINT('',(0.0275,0.028,0.0125));
#1221=CARTESIAN_POINT('',(0.058,0.0155,0.0125));
#1222=CARTESIAN_POINT('',(0.058,0.0155,-0.0095));
#1223=CARTESIAN_POINT('',(0.058,0.003,-0.0095));
#1224=CARTESIAN_POINT('',(0.058,0.003,0.0125));
#1225=CARTESIAN_POINT('',(0.058,0.003,0.0125));
#1226=CARTESIAN_POINT('',(0.058,0.0155,0.0125));
#1227=CARTESIAN_POINT('',(0.08765,0.003,0.0125));
#1228=CARTESIAN_POINT('',(0.08765,0.003,-0.0095));
#1229=CARTESIAN_POINT('',(0.08765,0.003,0.0125));
#1230=CARTESIAN_POINT('',(0.05715,-0.04465,0.0125));
#1231=CARTESIAN_POINT('',(0.1183,0.006,0.0125));
#1232=CARTESIAN_POINT('',(0.1183,-0.1183,0.0125));
#1233=CARTESIAN_POINT('',(0.1183,0.004,0.0125));
#1234=CARTESIAN_POINT('',(0.061,0.004,0.0125));
#1235=CARTESIAN_POINT('',(0.059,0.004,0.0125));
#1236=CARTESIAN_POINT('',(0.059,0.031,0.0125));
#1237=CARTESIAN_POINT('',(0.059,0.029,0.0125));
#1238=CARTESIAN_POINT('',(-0.006,0.029,0.0125));
#1239=CARTESIAN_POINT('',(-0.004,0.029,0.0125));
#1240=CARTESIAN_POINT('',(-0.004,-0.1203,0.0125));
#1241=CARTESIAN_POINT('',(-0.004,-0.1183,0.0125));
#1242=CARTESIAN_POINT('',(0.1203,-0.1183,0.0125));
#1243=CARTESIAN_POINT('',(0.05715,-0.04465,-0.0125));
#1244=CARTESIAN_POINT('',(0.05715,-0.04465,-0.0095));
#1245=CARTESIAN_POINT('',(0.05715,-0.09525,-0.0095));
#1246=CARTESIAN_POINT('',(0.06015,-0.09525,-0.0095));
#1247=CARTESIAN_POINT('',(0.01905,-0.05715,-0.0095));
#1248=CARTESIAN_POINT('',(0.02205,-0.05715,-0.0095));
#1249=CARTESIAN_POINT('',(0.01905,-0.01905,-0.0095));
#1250=CARTESIAN_POINT('',(0.02205,-0.01905,-0.0095));
#1251=CARTESIAN_POINT('',(0.09525,-0.01905,-0.0095));
#1252=CARTESIAN_POINT('',(0.09825,-0.01905,-0.0095));
#1253=CARTESIAN_POINT('',(0.09525,-0.05715,-0.0095));
#1254=CARTESIAN_POINT('',(0.09825,-0.05715,-0.0095));
#1255=CARTESIAN_POINT('',(-0.001,0.01311,0.008035));
#1256=CARTESIAN_POINT('',(-0.001,0.00611,0.008035));
#1257=CARTESIAN_POINT('',(-0.001,0.02011,0.008035));
#1258=CARTESIAN_POINT('',(-0.001,0.02011,0.00396));
#1259=CARTESIAN_POINT('',(-0.001,0.02011,-0.000114999999999997));
#1260=CARTESIAN_POINT('',(-0.001,0.01311,-0.000115));
#1261=CARTESIAN_POINT('',(-0.001,0.00611,-0.000115000000000004));
#1262=CARTESIAN_POINT('',(-0.001,0.00611,0.00396));
#1263=CARTESIAN_POINT('',(-0.004,-0.04465,0.0125));
#1264=CARTESIAN_POINT('',(0.0163833333333332,0.00861666666666664,0.0328833333333333));
#1265=CARTESIAN_POINT('',(0.02055,-0.09375,0.03705));
#1266=CARTESIAN_POINT('',(0.05715,-0.1183,0.0125));
#1267=CARTESIAN_POINT('',(0.0979166666666667,-0.0979166666666667,0.0328833333333333));
#1268=CARTESIAN_POINT('',(0.05715,0.029,0.0125));
#1269=CARTESIAN_POINT('',(0.03445,0.00444999999999988,0.03705));
#1270=CARTESIAN_POINT('',(0.1183,-0.04465,0.0125));
#1271=CARTESIAN_POINT('',(0.102083333333333,-0.0122166666666667,0.0287166666666667));
#1272=CARTESIAN_POINT('',(0.059,-0.04465,0.0125));
#1273=CARTESIAN_POINT('',(0.0583833333333333,0.00338333333333333,0.0131166666666667));
#1274=CARTESIAN_POINT('',(0.05715,0.004,0.0125));
#1275=CARTESIAN_POINT('',(0.01905,-0.01905,-0.0025));
#1276=CARTESIAN_POINT('',(0.01905,-0.01905,-0.0025));
#1277=CARTESIAN_POINT('',(0.02205,-0.01905,-0.0025));
#1278=CARTESIAN_POINT('',(0.05715,-0.04465,-0.0025));
#1279=CARTESIAN_POINT('',(0.01905,-0.01905,-0.0025));
#1280=CARTESIAN_POINT('',(0.02065,-0.01905,-0.0025));
#1281=CARTESIAN_POINT('',(0.01905,-0.05715,-0.0025));
#1282=CARTESIAN_POINT('',(0.01905,-0.05715,-0.0025));
#1283=CARTESIAN_POINT('',(0.02205,-0.05715,-0.0025));
#1284=CARTESIAN_POINT('',(0.05715,-0.04465,-0.0025));
#1285=CARTESIAN_POINT('',(0.01905,-0.05715,-0.0025));
#1286=CARTESIAN_POINT('',(0.02065,-0.05715,-0.0025));
#1287=CARTESIAN_POINT('',(0.05715,-0.09525,-0.0025));
#1288=CARTESIAN_POINT('',(0.05715,-0.09525,-0.0025));
#1289=CARTESIAN_POINT('',(0.06015,-0.09525,-0.0025));
#1290=CARTESIAN_POINT('',(0.05715,-0.04465,-0.0025));
#1291=CARTESIAN_POINT('',(0.05715,-0.09525,-0.0025));
#1292=CARTESIAN_POINT('',(0.05875,-0.09525,-0.0025));
#1293=CARTESIAN_POINT('',(0.09525,-0.05715,-0.0025));
#1294=CARTESIAN_POINT('',(0.09525,-0.05715,-0.0025));
#1295=CARTESIAN_POINT('',(0.09825,-0.05715,-0.0025));
#1296=CARTESIAN_POINT('',(0.05715,-0.04465,-0.0025));
#1297=CARTESIAN_POINT('',(0.09525,-0.05715,-0.0025));
#1298=CARTESIAN_POINT('',(0.09685,-0.05715,-0.0025));
#1299=CARTESIAN_POINT('',(0.09525,-0.01905,-0.0025));
#1300=CARTESIAN_POINT('',(0.09525,-0.01905,-0.0025));
#1301=CARTESIAN_POINT('',(0.09825,-0.01905,-0.0025));
#1302=CARTESIAN_POINT('',(0.05715,-0.04465,-0.0025));
#1303=CARTESIAN_POINT('',(0.09525,-0.01905,-0.0025));
#1304=CARTESIAN_POINT('',(0.09685,-0.01905,-0.0025));
#1305=CARTESIAN_POINT('',(0.05645,-0.05645,-0.007));
#1306=CARTESIAN_POINT('',(0.09525,-0.01905,-0.007));
#1307=CARTESIAN_POINT('',(0.09685,-0.01905,-0.007));
#1308=CARTESIAN_POINT('',(0.09525,-0.01905,-0.007));
#1309=CARTESIAN_POINT('',(0.05645,-0.05645,-0.007));
#1310=CARTESIAN_POINT('',(0.09525,-0.05715,-0.007));
#1311=CARTESIAN_POINT('',(0.09685,-0.05715,-0.007));
#1312=CARTESIAN_POINT('',(0.09525,-0.05715,-0.007));
#1313=CARTESIAN_POINT('',(0.05715,-0.09525,-0.007));
#1314=CARTESIAN_POINT('',(0.05715,-0.09525,-0.007));
#1315=CARTESIAN_POINT('',(0.05875,-0.09525,-0.007));
#1316=CARTESIAN_POINT('',(0.05645,-0.05645,-0.007));
#1317=CARTESIAN_POINT('',(0.01905,-0.05715,-0.007));
#1318=CARTESIAN_POINT('',(0.01905,-0.05715,-0.007));
#1319=CARTESIAN_POINT('',(0.02065,-0.05715,-0.007));
#1320=CARTESIAN_POINT('',(0.05645,-0.05645,-0.007));
#1321=CARTESIAN_POINT('',(0.01905,-0.01905,-0.007));
#1322=CARTESIAN_POINT('',(0.01905,-0.01905,-0.007));
#1323=CARTESIAN_POINT('',(0.02065,-0.01905,-0.007));
#1324=CARTESIAN_POINT('',(0.05645,-0.05645,-0.007));
#1325=CARTESIAN_POINT('',(0.05715,-0.04465,-0.0105));
#1326=CARTESIAN_POINT('',(0.05715,-0.04465,-0.0105));
#1327=CARTESIAN_POINT('',(0.05715,-0.04465,-0.0105));
#1328=CARTESIAN_POINT('',(0.05715,-0.04465,-0.0105));
#1329=CARTESIAN_POINT('',(0.05715,-0.04465,-0.0105));
#1330=MECHANICAL_DESIGN_GEOMETRIC_PRESENTATION_REPRESENTATION('',(#787),
#1331);
#1331=(
GEOMETRIC_REPRESENTATION_CONTEXT(3)
GLOBAL_UNCERTAINTY_ASSIGNED_CONTEXT((#1332))
GLOBAL_UNIT_ASSIGNED_CONTEXT((#1335,#1334,#1333))
REPRESENTATION_CONTEXT('Part 1','TOP_LEVEL_ASSEMBLY_PART')
);
#1332=UNCERTAINTY_MEASURE_WITH_UNIT(LENGTH_MEASURE(1.E-8),#1335,
'DISTANCE_ACCURACY_VALUE','Maximum Tolerance applied to model');
#1333=(
NAMED_UNIT(*)
SI_UNIT($,.STERADIAN.)
SOLID_ANGLE_UNIT()
);
#1334=(
NAMED_UNIT(*)
PLANE_ANGLE_UNIT()
SI_UNIT($,.RADIAN.)
);
#1335=(
LENGTH_UNIT()
NAMED_UNIT(*)
SI_UNIT($,.METRE.)
);
#1336=PRODUCT_DEFINITION_SHAPE('','',#1337);
#1337=PRODUCT_DEFINITION('','',#1339,#1338);
#1338=PRODUCT_DEFINITION_CONTEXT('',#1345,'design');
#1339=PRODUCT_DEFINITION_FORMATION_WITH_SPECIFIED_SOURCE('','',#1341,
 .NOT_KNOWN.);
#1340=PRODUCT_RELATED_PRODUCT_CATEGORY('','',(#1341));
#1341=PRODUCT('Part 1','Part 1','Part 1',(#1343));
#1342=PRODUCT_CATEGORY('','');
#1343=PRODUCT_CONTEXT('',#1345,'mechanical');
#1344=APPLICATION_PROTOCOL_DEFINITION('international standard',
'ap242_managed_model_based_3d_engineering',2020,#1345);
#1345=APPLICATION_CONTEXT('managed model based 3d engineering');
ENDSEC;
END-ISO-10303-21;
